<svg width="26" height="26" viewBox="0 0 26 26" fill="none" xmlns="http://www.w3.org/2000/svg">
<path d="M16.25 8.66675H16.2608M6.5 14.0834L9.36433 11.2191C9.48607 11.0972 9.63063 11.0006 9.78975 10.9346C9.94887 10.8687 10.1194 10.8347 10.2917 10.8347C10.4639 10.8347 10.6345 10.8687 10.7936 10.9346C10.9527 11.0006 11.0973 11.0972 11.219 11.2191L15.1667 15.1667" stroke="#FF4B4B" stroke-width="2.33333" stroke-linecap="round" stroke-linejoin="round"/>
<path d="M14.083 14.0834L15.864 12.3024C15.9857 12.1805 16.1303 12.0839 16.2894 12.0179C16.4485 11.952 16.6191 11.918 16.7913 11.918C16.9636 11.918 17.1341 11.952 17.2933 12.0179C17.4524 12.0839 17.5969 12.1805 17.7187 12.3024L19.4997 14.0834M4.33301 8.66671V6.50004C4.33301 5.9254 4.56128 5.3743 4.96761 4.96798C5.37394 4.56165 5.92504 4.33337 6.49967 4.33337H8.66634M4.33301 17.3334V19.5C4.33301 20.0747 4.56128 20.6258 4.96761 21.0321C5.37394 21.4384 5.92504 21.6667 6.49967 21.6667H8.66634M17.333 4.33337H19.4997C20.0743 4.33337 20.6254 4.56165 21.0317 4.96798C21.4381 5.3743 21.6663 5.9254 21.6663 6.50004V8.66671M17.333 21.6667H19.4997C20.0743 21.6667 20.6254 21.4384 21.0317 21.0321C21.4381 20.6258 21.6663 20.0747 21.6663 19.5V17.3334" stroke="#FF4B4B" stroke-width="2.33333" stroke-linecap="round" stroke-linejoin="round"/>
</svg>
